<mxfile host="Electron" modified="2024-12-20T16:43:20.995Z" agent="Mozilla/5.0 (X11; Linux x86_64) AppleWebKit/537.36 (KHTML, like Gecko) draw.io/24.6.1 Chrome/124.0.6367.207 Electron/30.0.6 Safari/537.36" etag="6-wvmNl2qmsuSdQMZ2HG" version="24.6.1" type="device">
  <diagram name="Page-1" id="VREW-hk0Lx_VM9Mob7_j">
    <mxGraphModel dx="272" dy="-878" grid="1" gridSize="10" guides="1" tooltips="1" connect="1" arrows="1" fold="1" page="1" pageScale="1" pageWidth="850" pageHeight="1100" math="0" shadow="0">
      <root>
        <mxCell id="0" />
        <mxCell id="1" parent="0" />
        <mxCell id="E9KV9NgzQvVaVPo10TBC-1" value="act Using Celestial Objects Functions" style="shape=umlFrame;whiteSpace=wrap;html=1;pointerEvents=0;width=220;height=30;" vertex="1" parent="1">
          <mxGeometry x="1920" y="2340" width="900" height="510" as="geometry" />
        </mxCell>
        <mxCell id="E9KV9NgzQvVaVPo10TBC-2" value="QSS Library (Runtime)" style="swimlane;startSize=48;horizontal=0;html=1;whiteSpace=wrap;" vertex="1" parent="1">
          <mxGeometry x="1940" y="2380" width="857.5" height="370" as="geometry" />
        </mxCell>
        <mxCell id="E9KV9NgzQvVaVPo10TBC-3" value="" style="edgeStyle=orthogonalEdgeStyle;rounded=0;orthogonalLoop=1;jettySize=auto;html=1;" edge="1" parent="E9KV9NgzQvVaVPo10TBC-2" source="E9KV9NgzQvVaVPo10TBC-18" target="E9KV9NgzQvVaVPo10TBC-26">
          <mxGeometry relative="1" as="geometry" />
        </mxCell>
        <mxCell id="E9KV9NgzQvVaVPo10TBC-4" value="" style="edgeStyle=orthogonalEdgeStyle;rounded=0;orthogonalLoop=1;jettySize=auto;html=1;" edge="1" parent="E9KV9NgzQvVaVPo10TBC-2" source="E9KV9NgzQvVaVPo10TBC-21" target="E9KV9NgzQvVaVPo10TBC-22">
          <mxGeometry relative="1" as="geometry" />
        </mxCell>
        <mxCell id="E9KV9NgzQvVaVPo10TBC-5" value="" style="edgeStyle=orthogonalEdgeStyle;rounded=0;orthogonalLoop=1;jettySize=auto;html=1;entryX=0;entryY=0.5;entryDx=0;entryDy=0;entryPerimeter=0;" edge="1" parent="E9KV9NgzQvVaVPo10TBC-2" source="E9KV9NgzQvVaVPo10TBC-22" target="E9KV9NgzQvVaVPo10TBC-19">
          <mxGeometry relative="1" as="geometry">
            <Array as="points">
              <mxPoint x="547.5" y="117.5" />
              <mxPoint x="547.5" y="47.5" />
            </Array>
          </mxGeometry>
        </mxCell>
        <mxCell id="E9KV9NgzQvVaVPo10TBC-6" value="&lt;font style=&quot;font-size: 7px;&quot;&gt;&amp;nbsp;[ create ]&amp;nbsp;&lt;/font&gt;" style="edgeLabel;html=1;align=center;verticalAlign=middle;resizable=0;points=[];" vertex="1" connectable="0" parent="E9KV9NgzQvVaVPo10TBC-5">
          <mxGeometry x="0.4399" relative="1" as="geometry">
            <mxPoint x="2" as="offset" />
          </mxGeometry>
        </mxCell>
        <mxCell id="E9KV9NgzQvVaVPo10TBC-7" value="" style="edgeStyle=orthogonalEdgeStyle;rounded=0;orthogonalLoop=1;jettySize=auto;html=1;entryX=0;entryY=0.5;entryDx=0;entryDy=0;entryPerimeter=0;exitX=1;exitY=0.5;exitDx=0;exitDy=0;exitPerimeter=0;" edge="1" parent="E9KV9NgzQvVaVPo10TBC-2" source="E9KV9NgzQvVaVPo10TBC-22" target="E9KV9NgzQvVaVPo10TBC-20">
          <mxGeometry relative="1" as="geometry">
            <mxPoint x="547.5" y="127.5" as="sourcePoint" />
            <mxPoint x="587.5" y="57.5" as="targetPoint" />
            <Array as="points">
              <mxPoint x="547.5" y="117.5" />
              <mxPoint x="547.5" y="187.5" />
            </Array>
          </mxGeometry>
        </mxCell>
        <mxCell id="E9KV9NgzQvVaVPo10TBC-8" value="&lt;span style=&quot;font-size: 7px;&quot;&gt;&amp;nbsp;[ load ]&amp;nbsp;&lt;/span&gt;" style="edgeLabel;html=1;align=center;verticalAlign=middle;resizable=0;points=[];" vertex="1" connectable="0" parent="E9KV9NgzQvVaVPo10TBC-7">
          <mxGeometry x="0.4077" relative="1" as="geometry">
            <mxPoint x="4" as="offset" />
          </mxGeometry>
        </mxCell>
        <mxCell id="E9KV9NgzQvVaVPo10TBC-9" value="" style="edgeStyle=orthogonalEdgeStyle;rounded=0;orthogonalLoop=1;jettySize=auto;html=1;entryX=0;entryY=0.5;entryDx=0;entryDy=0;entryPerimeter=0;exitX=1;exitY=0.5;exitDx=0;exitDy=0;exitPerimeter=0;" edge="1" parent="E9KV9NgzQvVaVPo10TBC-2" source="E9KV9NgzQvVaVPo10TBC-22" target="E9KV9NgzQvVaVPo10TBC-18">
          <mxGeometry relative="1" as="geometry">
            <mxPoint x="547.5" y="127.5" as="sourcePoint" />
            <mxPoint x="587.5" y="197.5" as="targetPoint" />
          </mxGeometry>
        </mxCell>
        <mxCell id="E9KV9NgzQvVaVPo10TBC-10" value="&lt;span style=&quot;font-size: 7px;&quot;&gt;&amp;nbsp;[ save ]&amp;nbsp;&lt;/span&gt;" style="edgeLabel;html=1;align=center;verticalAlign=middle;resizable=0;points=[];" vertex="1" connectable="0" parent="E9KV9NgzQvVaVPo10TBC-9">
          <mxGeometry x="0.0153" relative="1" as="geometry">
            <mxPoint as="offset" />
          </mxGeometry>
        </mxCell>
        <mxCell id="E9KV9NgzQvVaVPo10TBC-11" value="" style="edgeStyle=orthogonalEdgeStyle;rounded=0;orthogonalLoop=1;jettySize=auto;html=1;entryX=0.5;entryY=1;entryDx=0;entryDy=0;entryPerimeter=0;" edge="1" parent="E9KV9NgzQvVaVPo10TBC-2" source="E9KV9NgzQvVaVPo10TBC-24" target="E9KV9NgzQvVaVPo10TBC-20">
          <mxGeometry relative="1" as="geometry">
            <mxPoint x="477.5" y="252.5" as="targetPoint" />
          </mxGeometry>
        </mxCell>
        <mxCell id="E9KV9NgzQvVaVPo10TBC-12" value="&lt;font style=&quot;font-size: 7px;&quot;&gt;&amp;nbsp;[ manage ]&amp;nbsp;&lt;/font&gt;" style="edgeStyle=orthogonalEdgeStyle;rounded=0;orthogonalLoop=1;jettySize=auto;html=1;entryX=0;entryY=0.5;entryDx=0;entryDy=0;exitX=1;exitY=0.5;exitDx=0;exitDy=0;exitPerimeter=0;" edge="1" parent="E9KV9NgzQvVaVPo10TBC-2" source="E9KV9NgzQvVaVPo10TBC-25" target="E9KV9NgzQvVaVPo10TBC-21">
          <mxGeometry x="0.5556" relative="1" as="geometry">
            <Array as="points">
              <mxPoint x="257.5" y="217.5" />
              <mxPoint x="257.5" y="117.5" />
            </Array>
            <mxPoint as="offset" />
          </mxGeometry>
        </mxCell>
        <mxCell id="E9KV9NgzQvVaVPo10TBC-13" value="&lt;font style=&quot;font-size: 7px;&quot;&gt;&amp;nbsp;[ use catalogs ]&amp;nbsp;&lt;/font&gt;" style="edgeStyle=orthogonalEdgeStyle;rounded=0;orthogonalLoop=1;jettySize=auto;html=1;entryX=0;entryY=0.5;entryDx=0;entryDy=0;exitX=1;exitY=0.5;exitDx=0;exitDy=0;exitPerimeter=0;" edge="1" parent="E9KV9NgzQvVaVPo10TBC-2" source="E9KV9NgzQvVaVPo10TBC-25" target="E9KV9NgzQvVaVPo10TBC-23">
          <mxGeometry x="0.5676" relative="1" as="geometry">
            <Array as="points">
              <mxPoint x="257.5" y="217.5" />
              <mxPoint x="257.5" y="322.5" />
            </Array>
            <mxPoint as="offset" />
          </mxGeometry>
        </mxCell>
        <mxCell id="E9KV9NgzQvVaVPo10TBC-14" value="&lt;span style=&quot;font-size: 7px;&quot;&gt;&amp;nbsp;[ use example ]&lt;/span&gt;" style="edgeStyle=orthogonalEdgeStyle;rounded=0;orthogonalLoop=1;jettySize=auto;html=1;entryX=0;entryY=0.5;entryDx=0;entryDy=0;" edge="1" parent="E9KV9NgzQvVaVPo10TBC-2" source="E9KV9NgzQvVaVPo10TBC-25" target="E9KV9NgzQvVaVPo10TBC-24">
          <mxGeometry x="0.3043" relative="1" as="geometry">
            <Array as="points">
              <mxPoint x="257.5" y="217.5" />
              <mxPoint x="257.5" y="252.5" />
            </Array>
            <mxPoint as="offset" />
          </mxGeometry>
        </mxCell>
        <mxCell id="E9KV9NgzQvVaVPo10TBC-15" value="" style="edgeStyle=orthogonalEdgeStyle;rounded=0;orthogonalLoop=1;jettySize=auto;html=1;" edge="1" parent="E9KV9NgzQvVaVPo10TBC-2" source="E9KV9NgzQvVaVPo10TBC-26" target="E9KV9NgzQvVaVPo10TBC-27">
          <mxGeometry relative="1" as="geometry" />
        </mxCell>
        <mxCell id="E9KV9NgzQvVaVPo10TBC-16" style="edgeStyle=orthogonalEdgeStyle;rounded=0;orthogonalLoop=1;jettySize=auto;html=1;entryX=0;entryY=0.5;entryDx=0;entryDy=0;entryPerimeter=0;" edge="1" parent="E9KV9NgzQvVaVPo10TBC-2" source="E9KV9NgzQvVaVPo10TBC-19" target="E9KV9NgzQvVaVPo10TBC-26">
          <mxGeometry relative="1" as="geometry" />
        </mxCell>
        <mxCell id="E9KV9NgzQvVaVPo10TBC-17" style="edgeStyle=orthogonalEdgeStyle;rounded=0;orthogonalLoop=1;jettySize=auto;html=1;entryX=0;entryY=0.5;entryDx=0;entryDy=0;entryPerimeter=0;" edge="1" parent="E9KV9NgzQvVaVPo10TBC-2" source="E9KV9NgzQvVaVPo10TBC-20" target="E9KV9NgzQvVaVPo10TBC-26">
          <mxGeometry relative="1" as="geometry" />
        </mxCell>
        <mxCell id="E9KV9NgzQvVaVPo10TBC-18" value=": Save Object&lt;div&gt;&lt;br&gt;&lt;/div&gt;" style="html=1;shape=mxgraph.sysml.callBehAct;whiteSpace=wrap;align=center;fontSize=10;" vertex="1" parent="E9KV9NgzQvVaVPo10TBC-2">
          <mxGeometry x="627.5" y="92.5" width="110" height="50" as="geometry" />
        </mxCell>
        <mxCell id="E9KV9NgzQvVaVPo10TBC-19" value=": Create Object&amp;nbsp;&lt;div&gt;&lt;br&gt;&lt;/div&gt;" style="html=1;shape=mxgraph.sysml.callBehAct;whiteSpace=wrap;align=center;fontSize=10;" vertex="1" parent="E9KV9NgzQvVaVPo10TBC-2">
          <mxGeometry x="627.5" y="22.5" width="110" height="50" as="geometry" />
        </mxCell>
        <mxCell id="E9KV9NgzQvVaVPo10TBC-20" value=": Load Object&lt;div&gt;&lt;br&gt;&lt;/div&gt;" style="html=1;shape=mxgraph.sysml.callBehAct;whiteSpace=wrap;align=center;fontSize=10;" vertex="1" parent="E9KV9NgzQvVaVPo10TBC-2">
          <mxGeometry x="627.5" y="162.5" width="110" height="50" as="geometry" />
        </mxCell>
        <mxCell id="E9KV9NgzQvVaVPo10TBC-21" value="Request to manage&lt;div&gt;Celestial Object&lt;/div&gt;" style="shape=rect;html=1;rounded=1;whiteSpace=wrap;align=center;fontSize=10;" vertex="1" parent="E9KV9NgzQvVaVPo10TBC-2">
          <mxGeometry x="327.5" y="92.5" width="110" height="50" as="geometry" />
        </mxCell>
        <mxCell id="E9KV9NgzQvVaVPo10TBC-22" value="" style="strokeWidth=2;html=1;shape=mxgraph.flowchart.decision;whiteSpace=wrap;" vertex="1" parent="E9KV9NgzQvVaVPo10TBC-2">
          <mxGeometry x="477.5" y="87.5" width="60" height="60" as="geometry" />
        </mxCell>
        <mxCell id="E9KV9NgzQvVaVPo10TBC-23" value="Request to access Celestial Objects Catalogs directly" style="shape=rect;html=1;rounded=1;whiteSpace=wrap;align=center;fontSize=10;" vertex="1" parent="E9KV9NgzQvVaVPo10TBC-2">
          <mxGeometry x="327.5" y="297.5" width="110" height="50" as="geometry" />
        </mxCell>
        <mxCell id="E9KV9NgzQvVaVPo10TBC-24" value="Use example&lt;div&gt;Celestial Objects&lt;/div&gt;" style="shape=rect;html=1;rounded=1;whiteSpace=wrap;align=center;fontSize=10;" vertex="1" parent="E9KV9NgzQvVaVPo10TBC-2">
          <mxGeometry x="327.5" y="227.5" width="110" height="50" as="geometry" />
        </mxCell>
        <mxCell id="E9KV9NgzQvVaVPo10TBC-25" value="" style="strokeWidth=2;html=1;shape=mxgraph.flowchart.decision;whiteSpace=wrap;" vertex="1" parent="E9KV9NgzQvVaVPo10TBC-2">
          <mxGeometry x="187.5" y="187.5" width="60" height="60" as="geometry" />
        </mxCell>
        <mxCell id="E9KV9NgzQvVaVPo10TBC-26" value="" style="strokeWidth=2;html=1;shape=mxgraph.flowchart.decision;whiteSpace=wrap;" vertex="1" parent="E9KV9NgzQvVaVPo10TBC-2">
          <mxGeometry x="777.5" y="87.5" width="60" height="60" as="geometry" />
        </mxCell>
        <mxCell id="E9KV9NgzQvVaVPo10TBC-27" value="" style="html=1;shape=mxgraph.sysml.actFinal;strokeWidth=2;verticalLabelPosition=bottom;verticalAlignment=top;" vertex="1" parent="E9KV9NgzQvVaVPo10TBC-2">
          <mxGeometry x="787.5" y="232.5" width="40" height="40" as="geometry" />
        </mxCell>
        <mxCell id="E9KV9NgzQvVaVPo10TBC-28" value="" style="shape=ellipse;html=1;fillColor=strokeColor;strokeWidth=2;verticalLabelPosition=bottom;verticalAlignment=top;perimeter=ellipsePerimeter;" vertex="1" parent="E9KV9NgzQvVaVPo10TBC-2">
          <mxGeometry x="102.5" y="107.5" width="40" height="40" as="geometry" />
        </mxCell>
        <mxCell id="E9KV9NgzQvVaVPo10TBC-29" value="&lt;span style=&quot;font-size: 11px;&quot;&gt;User&lt;/span&gt;&lt;div&gt;&lt;span style=&quot;font-size: 11px; background-color: initial;&quot;&gt;(Developer, Astronomer)&lt;/span&gt;&lt;/div&gt;" style="swimlane;startSize=48;horizontal=0;html=1;whiteSpace=wrap;" vertex="1" parent="1">
          <mxGeometry x="1940" y="2750" width="857.5" height="80" as="geometry" />
        </mxCell>
        <mxCell id="E9KV9NgzQvVaVPo10TBC-30" value="Call Function of&lt;div&gt;Celestial Objects&lt;/div&gt;" style="shape=rect;html=1;rounded=1;whiteSpace=wrap;align=center;fontSize=10;" vertex="1" parent="E9KV9NgzQvVaVPo10TBC-29">
          <mxGeometry x="67.5" y="15" width="110" height="50" as="geometry" />
        </mxCell>
        <mxCell id="E9KV9NgzQvVaVPo10TBC-31" value="Select&lt;div&gt;Celestial Object&lt;/div&gt;" style="shape=rect;html=1;rounded=1;whiteSpace=wrap;align=center;fontSize=10;" vertex="1" parent="E9KV9NgzQvVaVPo10TBC-29">
          <mxGeometry x="627.5" y="15" width="110" height="50" as="geometry" />
        </mxCell>
        <mxCell id="E9KV9NgzQvVaVPo10TBC-32" value="" style="edgeStyle=orthogonalEdgeStyle;rounded=0;orthogonalLoop=1;jettySize=auto;html=1;" edge="1" parent="E9KV9NgzQvVaVPo10TBC-29" source="E9KV9NgzQvVaVPo10TBC-33" target="E9KV9NgzQvVaVPo10TBC-31">
          <mxGeometry relative="1" as="geometry" />
        </mxCell>
        <mxCell id="E9KV9NgzQvVaVPo10TBC-33" value="Select Catalog" style="shape=rect;html=1;rounded=1;whiteSpace=wrap;align=center;fontSize=10;" vertex="1" parent="E9KV9NgzQvVaVPo10TBC-29">
          <mxGeometry x="477.5" y="15" width="110" height="50" as="geometry" />
        </mxCell>
        <mxCell id="E9KV9NgzQvVaVPo10TBC-34" value="" style="edgeStyle=orthogonalEdgeStyle;rounded=0;orthogonalLoop=1;jettySize=auto;html=1;" edge="1" parent="1" source="E9KV9NgzQvVaVPo10TBC-30" target="E9KV9NgzQvVaVPo10TBC-25">
          <mxGeometry relative="1" as="geometry" />
        </mxCell>
        <mxCell id="E9KV9NgzQvVaVPo10TBC-35" value="" style="edgeStyle=orthogonalEdgeStyle;rounded=0;orthogonalLoop=1;jettySize=auto;html=1;" edge="1" parent="1" source="E9KV9NgzQvVaVPo10TBC-28" target="E9KV9NgzQvVaVPo10TBC-30">
          <mxGeometry relative="1" as="geometry" />
        </mxCell>
        <mxCell id="E9KV9NgzQvVaVPo10TBC-36" value="" style="edgeStyle=orthogonalEdgeStyle;rounded=0;orthogonalLoop=1;jettySize=auto;html=1;" edge="1" parent="1" source="E9KV9NgzQvVaVPo10TBC-31" target="E9KV9NgzQvVaVPo10TBC-20">
          <mxGeometry relative="1" as="geometry" />
        </mxCell>
        <mxCell id="E9KV9NgzQvVaVPo10TBC-37" value="" style="edgeStyle=orthogonalEdgeStyle;rounded=0;orthogonalLoop=1;jettySize=auto;html=1;" edge="1" parent="1" source="E9KV9NgzQvVaVPo10TBC-23" target="E9KV9NgzQvVaVPo10TBC-33">
          <mxGeometry relative="1" as="geometry" />
        </mxCell>
      </root>
    </mxGraphModel>
  </diagram>
</mxfile>
